<mxfile host="65bd71144e">
    <diagram id="OxDpGAn04glTuWDcR5mX" name="Page-1">
        <mxGraphModel dx="948" dy="683" grid="1" gridSize="10" guides="1" tooltips="1" connect="1" arrows="1" fold="1" page="1" pageScale="1" pageWidth="850" pageHeight="1100" math="0" shadow="0">
            <root>
                <mxCell id="0"/>
                <mxCell id="1" parent="0"/>
                <mxCell id="2" value="&amp;lt;&amp;lt;subsystem&amp;gt;&amp;gt;&lt;br&gt;vvc_performance" style="shape=folder;fontStyle=1;tabWidth=120;tabHeight=50;tabPosition=left;html=1;boundedLbl=1;labelInHeader=1;container=1;collapsible=0;recursiveResize=0;" vertex="1" parent="1">
                    <mxGeometry x="180" y="50" width="380" height="270" as="geometry"/>
                </mxCell>
                <mxCell id="8" style="edgeStyle=none;html=1;entryX=0;entryY=0;entryDx=92.5;entryDy=30;entryPerimeter=0;dashed=1;" edge="1" parent="2" source="4" target="7">
                    <mxGeometry relative="1" as="geometry"/>
                </mxCell>
                <mxCell id="4" value="Profiler" style="shape=folder;fontStyle=1;tabWidth=35;tabHeight=30;tabPosition=left;html=1;boundedLbl=1;" vertex="1" parent="2">
                    <mxGeometry x="205" y="70" width="150" height="80" as="geometry"/>
                </mxCell>
                <mxCell id="9" style="edgeStyle=none;html=1;entryX=0;entryY=0;entryDx=92.5;entryDy=30;entryPerimeter=0;dashed=1;" edge="1" parent="2" source="5" target="7">
                    <mxGeometry relative="1" as="geometry"/>
                </mxCell>
                <mxCell id="5" value="Simulation" style="shape=folder;fontStyle=1;tabWidth=35;tabHeight=30;tabPosition=left;html=1;boundedLbl=1;" vertex="1" parent="2">
                    <mxGeometry x="25" y="70" width="150" height="80" as="geometry"/>
                </mxCell>
                <mxCell id="7" value="Common" style="shape=folder;fontStyle=1;tabWidth=35;tabHeight=30;tabPosition=left;html=1;boundedLbl=1;" vertex="1" parent="2">
                    <mxGeometry x="115" y="170" width="150" height="80" as="geometry"/>
                </mxCell>
            </root>
        </mxGraphModel>
    </diagram>
</mxfile>